/* XPM */
static char *c462a912c38d45e79e0a2131ed290534[] = {
/* columns rows colors chars-per-pixel */
"128 128 14 1 ",
"  c #3F0000",
". c #5D0500",
"X c #650B00",
"o c #751900",
"O c #732B00",
"+ c #8E2E00",
"@ c #A43D00",
"# c #874307",
"$ c #B14500",
"% c #BE4D00",
"& c #CB5500",
"* c #D85D00",
"= c #E56500",
"- c #FF8619",
/* pixels */
"+oooooooooooooooooooooooooooooo++oooooooooooooooooooooooooooooo++oooooooooooooooooooooooooooooo++oooooooooooooooooooooooooooooo+",
"+++++@@@@@%%%%%%%%%%%%%@@@@+oo+++++++@@@@@%%%%%%%%%%%%%@@@@+oo+++++++@@@@@%%%%%%%%%%%%%@@@@+oo+++++++@@@@@%%%%%%%%%%%%%@@@@+oo++",
"##oo++@++++@@%%%%%@@+++@++oooo####oo++@++++@@%%%%%@@+++@++oooo####oo++@++++@@%%%%%@@+++@++oooo####oo++@++++@@%%%%%@@+++@++oooo##",
" ####%%%%@@@%%%%%%%@@@%===#####  ####%%%%@@@%%%%%%%@@@%===#####  ####%%%%@@@%%%%%%%@@@%===#####  ####%%%%@@@%%%%%%%@@@%===##### ",
"      %%%%%=============              %%%%%=============              %%%%%=============              %%%%%=============        ",
"        ==============.                 ==============.                 ==============.                 ==============.         ",
"         .OO#&&--&&#OO.                  .OO#&&--&&#OO.                  .OO#&&--&&#OO.                  .OO#&&--&&#OO.         ",
"         .OO#&&--&&#OO.                  .OO#&&--&&#OO.                  .OO#&&--&&#OO.                  .OO#&&--&&#OO.         ",
"         .OO#&&--&&#OO.                  .OO#&&--&&#OO.                  .OO#&&--&&#OO.                  .OO#&&--&&#OO.         ",
"      +@@.O$$**$$**$$O.@@++           +@@.O$$**$$**$$O.@@++           +@@.O$$**$$**$$O.@@++           +@@.O$$**$$**$$O.@@++     ",
"   ++@O#@%%$*%#**#%#%%@@#O+++ooo   ++@O#@%%$*%#**#%#%%@@#O+++ooo   ++@O#@%%$*%#**#%#%%@@#O+++ooo   ++@O#@%%$*%#**#%#%%@@#O+++ooo",
"++X@@@O%###%##%%%%#%#%##%OO@@XXo++X@@@O%###%##%%%%#%#%##%OO@@XXo++X@@@O%###%##%%%%#%#%##%OO@@XXo++X@@@O%###%##%%%%#%#%##%OO@@XXo",
"XX+OOO@%%#%#$*#%%#&#%##%@+OOO++XXX+OOO@%%#%#$*#%%#&#%##%@+OOO++XXX+OOO@%%#%#$*#%%#&#%##%@+OOO++XXX+OOO@%%#%#$*#%%#&#%##%@+OOO++X",
"oo +++   @@$$&&--&&#O@@@  ++ ooooo +++   @@$$&&--&&#O@@@  ++ ooooo +++   @@$$&&--&&#O@@@  ++ ooooo +++   @@$$&&--&&#O@@@  ++ ooo",
"o        .@O#&&--&&#OO.         o        .@O#&&--&&#OO.         o        .@O#&&--&&#OO.         o        .@O#&&--&&#OO.         ",
"         .OO#&&--&&#OO.                  .OO#&&--&&#OO.                  .OO#&&--&&#OO.                  .OO#&&--&&#OO.         ",
"      +@@.O$$**$$**$$O.@@++           +@@.O$$**$$**$$O.@@++           +@@.O$$**$$**$$O.@@++           +@@.O$$**$$**$$O.@@++     ",
"   ++@O#@%%$*%#**#%#%%@@#O+++ooo   ++@O#@%%$*%#**#%#%%@@#O+++ooo   ++@O#@%%$*%#**#%#%%@@#O+++ooo   ++@O#@%%$*%#**#%#%%@@#O+++ooo",
"++X@@@O%###%##%%%%#%#%##%OO@@XXo++X@@@O%###%##%%%%#%#%##%OO@@XXo++X@@@O%###%##%%%%#%#%##%OO@@XXo++X@@@O%###%##%%%%#%#%##%OO@@XXo",
"XX+OOO@%%#%#$*#%%#&#%##%@+OOO++XXX+OOO@%%#%#$*#%%#&#%##%@+OOO++XXX+OOO@%%#%#$*#%%#&#%##%@+OOO++XXX+OOO@%%#%#$*#%%#&#%##%@+OOO++X",
"oo +++   @@$$&&--&&#O@@@  ++ ooooo +++   @@$$&&--&&#O@@@  ++ ooooo +++   @@$$&&--&&#O@@@  ++ ooooo +++   @@$$&&--&&#O@@@  ++ ooo",
"o        .@O#&&--&&#OO.         o        .@O#&&--&&#OO.         o        .@O#&&--&&#OO.         o        .@O#&&--&&#OO.         ",
"         .OO#&&--&&#OO.                  .OO#&&--&&#OO.                  .OO#&&--&&#OO.                  .OO#&&--&&#OO.         ",
"      +@@.O$$**$$**$$O.@@++           +@@.O$$**$$**$$O.@@++           +@@.O$$**$$**$$O.@@++           +@@.O$$**$$**$$O.@@++     ",
"   ++@O#@%%$*%#**#%#%%@@#O+++ooo   ++@O#@%%$*%#**#%#%%@@#O+++ooo   ++@O#@%%$*%#**#%#%%@@#O+++ooo   ++@O#@%%$*%#**#%#%%@@#O+++ooo",
"++X@@@O%###%##%%%%#%#%##%OO@@XXo++X@@@O%###%##%%%%#%#%##%OO@@XXo++X@@@O%###%##%%%%#%#%##%OO@@XXo++X@@@O%###%##%%%%#%#%##%OO@@XXo",
"XX+OOO@%%#%#$*#%%#&#%##%@+OOO++XXX+OOO@%%#%#$*#%%#&#%##%@+OOO++XXX+OOO@%%#%#$*#%%#&#%##%@+OOO++XXX+OOO@%%#%#$*#%%#&#%##%@+OOO++X",
"oo +++   @@$$&&--&&#O@@@  ++ ooooo +++   @@$$&&--&&#O@@@  ++ ooooo +++   @@$$&&--&&#O@@@  ++ ooooo +++   @@$$&&--&&#O@@@  ++ ooo",
"o        .@O#&&--&&#OO.         o        .@O#&&--&&#OO.         o        .@O#&&--&&#OO.         o        .@O#&&--&&#OO.         ",
"         .OO#&&--&&#OO.                  .OO#&&--&&#OO.                  .OO#&&--&&#OO.                  .OO#&&--&&#OO.         ",
"      +@@.O$$**$$**$$O.@@++           +@@.O$$**$$**$$O.@@++           +@@.O$$**$$**$$O.@@++           +@@.O$$**$$**$$O.@@++     ",
"   ++@O#@%%$*%#**#%#%%@@#O+++ooo   ++@O#@%%$*%#**#%#%%@@#O+++ooo   ++@O#@%%$*%#**#%#%%@@#O+++ooo   ++@O#@%%$*%#**#%#%%@@#O+++ooo",
"++X@@@O%###%##%%%%#%#%##%OO@@XXo++X@@@O%###%##%%%%#%#%##%OO@@XXo++X@@@O%###%##%%%%#%#%##%OO@@XXo++X@@@O%###%##%%%%#%#%##%OO@@XXo",
"XX+OOO@%%#%#$*#%%#&#%##%@+OOO++XXX+OOO@%%#%#$*#%%#&#%##%@+OOO++XXX+OOO@%%#%#$*#%%#&#%##%@+OOO++XXX+OOO@%%#%#$*#%%#&#%##%@+OOO++X",
"oo +++   @@$$&&--&&#O@@@  ++ ooooo +++   @@$$&&--&&#O@@@  ++ ooooo +++   @@$$&&--&&#O@@@  ++ ooooo +++   @@$$&&--&&#O@@@  ++ ooo",
"o        .@O#&&--&&#OO.         o        .@O#&&--&&#OO.         o        .@O#&&--&&#OO.         o        .@O#&&--&&#OO.         ",
"         .OO#&&--&&#OO.                  .OO#&&--&&#OO.                  .OO#&&--&&#OO.                  .OO#&&--&&#OO.         ",
"      +@@.O$$**$$**$$O.@@++           +@@.O$$**$$**$$O.@@++           +@@.O$$**$$**$$O.@@++           +@@.O$$**$$**$$O.@@++     ",
"   ++@O#@%%$*%#**#%#%%@@#O+++ooo   ++@O#@%%$*%#**#%#%%@@#O+++ooo   ++@O#@%%$*%#**#%#%%@@#O+++ooo   ++@O#@%%$*%#**#%#%%@@#O+++ooo",
"++X@@@O%###%##%%%%#%#%##%OO@@XXo++X@@@O%###%##%%%%#%#%##%OO@@XXo++X@@@O%###%##%%%%#%#%##%OO@@XXo++X@@@O%###%##%%%%#%#%##%OO@@XXo",
"XX+OOO@%%#%#$*#%%#&#%##%@+OOO++XXX+OOO@%%#%#$*#%%#&#%##%@+OOO++XXX+OOO@%%#%#$*#%%#&#%##%@+OOO++XXX+OOO@%%#%#$*#%%#&#%##%@+OOO++X",
"oo +++   @@$$&&--&&#O@@@  ++ ooooo +++   @@$$&&--&&#O@@@  ++ ooooo +++   @@$$&&--&&#O@@@  ++ ooooo +++   @@$$&&--&&#O@@@  ++ ooo",
"o        .@O#&&--&&#OO.         o        .@O#&&--&&#OO.         o        .@O#&&--&&#OO.         o        .@O#&&--&&#OO.         ",
"         .OO#&&--&&#OO.                  .OO#&&--&&#OO.                  .OO#&&--&&#OO.                  .OO#&&--&&#OO.         ",
"      +@@.O$$**$$**$$O.@@++           +@@.O$$**$$**$$O.@@++           +@@.O$$**$$**$$O.@@++           +@@.O$$**$$**$$O.@@++     ",
"   ++@O#@%%$*%#**#%#%%@@#O+++ooo   ++@O#@%%$*%#**#%#%%@@#O+++ooo   ++@O#@%%$*%#**#%#%%@@#O+++ooo   ++@O#@%%$*%#**#%#%%@@#O+++ooo",
"++X@@@O%###%##%%%%#%#%##%OO@@XXo++X@@@O%###%##%%%%#%#%##%OO@@XXo++X@@@O%###%##%%%%#%#%##%OO@@XXo++X@@@O%###%##%%%%#%#%##%OO@@XXo",
"XX+OOO@%%#%#$*#%%#&#%##%@+OOO++XXX+OOO@%%#%#$*#%%#&#%##%@+OOO++XXX+OOO@%%#%#$*#%%#&#%##%@+OOO++XXX+OOO@%%#%#$*#%%#&#%##%@+OOO++X",
"oo +++   @@$$&&--&&#O@@@  ++ ooooo +++   @@$$&&--&&#O@@@  ++ ooooo +++   @@$$&&--&&#O@@@  ++ ooooo +++   @@$$&&--&&#O@@@  ++ ooo",
"o        .@O#&&--&&#OO.         o        .@O#&&--&&#OO.         o        .@O#&&--&&#OO.         o        .@O#&&--&&#OO.         ",
"         .OO#&&--&&#OO.                  .OO#&&--&&#OO.                  .OO#&&--&&#OO.                  .OO#&&--&&#OO.         ",
"      +@@.O$$**$$**$$O.@@++           +@@.O$$**$$**$$O.@@++           +@@.O$$**$$**$$O.@@++           +@@.O$$**$$**$$O.@@++     ",
"   ++@O#@%%$*%#**#%#%%@@#O+++ooo   ++@O#@%%$*%#**#%#%%@@#O+++ooo   ++@O#@%%$*%#**#%#%%@@#O+++ooo   ++@O#@%%$*%#**#%#%%@@#O+++ooo",
"++X@@@O%###%##%%%%#%#%##%OO@@XXo++X@@@O%###%##%%%%#%#%##%OO@@XXo++X@@@O%###%##%%%%#%#%##%OO@@XXo++X@@@O%###%##%%%%#%#%##%OO@@XXo",
"XX+OOO@%%#%#$*#%%#&#%##%@+OOO++XXX+OOO@%%#%#$*#%%#&#%##%@+OOO++XXX+OOO@%%#%#$*#%%#&#%##%@+OOO++XXX+OOO@%%#%#$*#%%#&#%##%@+OOO++X",
"oo +++   @@$$&&--&&#O@@@  ++ ooooo +++   @@$$&&--&&#O@@@  ++ ooooo +++   @@$$&&--&&#O@@@  ++ ooooo +++   @@$$&&--&&#O@@@  ++ ooo",
"o        .@O#&&--&&#OO.         o        .@O#&&--&&#OO.         o        .@O#&&--&&#OO.         o        .@O#&&--&&#OO.         ",
"         .OO#&&--&&#OO.                  .OO#&&--&&#OO.                  .OO#&&--&&#OO.                  .OO#&&--&&#OO.         ",
"      +@@.O$$**$$**$$O.@@++           +@@.O$$**$$**$$O.@@++           +@@.O$$**$$**$$O.@@++           +@@.O$$**$$**$$O.@@++     ",
"   ++@O#@%%$*%#**#%#%%@@#O+++ooo   ++@O#@%%$*%#**#%#%%@@#O+++ooo   ++@O#@%%$*%#**#%#%%@@#O+++ooo   ++@O#@%%$*%#**#%#%%@@#O+++ooo",
"++X@@@O%###%##%%%%#%#%##%OO@@XXo++X@@@O%###%##%%%%#%#%##%OO@@XXo++X@@@O%###%##%%%%#%#%##%OO@@XXo++X@@@O%###%##%%%%#%#%##%OO@@XXo",
"XX+OOO@%%#%#$*#%%#&#%##%@+OOO++XXX+OOO@%%#%#$*#%%#&#%##%@+OOO++XXX+OOO@%%#%#$*#%%#&#%##%@+OOO++XXX+OOO@%%#%#$*#%%#&#%##%@+OOO++X",
"oo +++   @@$$&&--&&#O@@@  ++ ooooo +++   @@$$&&--&&#O@@@  ++ ooooo +++   @@$$&&--&&#O@@@  ++ ooooo +++   @@$$&&--&&#O@@@  ++ ooo",
"o        .@O#&&--&&#OO.         o        .@O#&&--&&#OO.         o        .@O#&&--&&#OO.         o        .@O#&&--&&#OO.         ",
"         .OO#&&--&&#OO.                  .OO#&&--&&#OO.                  .OO#&&--&&#OO.                  .OO#&&--&&#OO.         ",
"      +@@.O$$**$$**$$O.@@++           +@@.O$$**$$**$$O.@@++           +@@.O$$**$$**$$O.@@++           +@@.O$$**$$**$$O.@@++     ",
"   ++@O#@%%$*%#**#%#%%@@#O+++ooo   ++@O#@%%$*%#**#%#%%@@#O+++ooo   ++@O#@%%$*%#**#%#%%@@#O+++ooo   ++@O#@%%$*%#**#%#%%@@#O+++ooo",
"++X@@@O%###%##%%%%#%#%##%OO@@XXo++X@@@O%###%##%%%%#%#%##%OO@@XXo++X@@@O%###%##%%%%#%#%##%OO@@XXo++X@@@O%###%##%%%%#%#%##%OO@@XXo",
"XX+OOO@%%#%#$*#%%#&#%##%@+OOO++XXX+OOO@%%#%#$*#%%#&#%##%@+OOO++XXX+OOO@%%#%#$*#%%#&#%##%@+OOO++XXX+OOO@%%#%#$*#%%#&#%##%@+OOO++X",
"oo +++   @@$$&&--&&#O@@@  ++ ooooo +++   @@$$&&--&&#O@@@  ++ ooooo +++   @@$$&&--&&#O@@@  ++ ooooo +++   @@$$&&--&&#O@@@  ++ ooo",
"o        .@O#&&--&&#OO.         o        .@O#&&--&&#OO.         o        .@O#&&--&&#OO.         o        .@O#&&--&&#OO.         ",
"         .OO#&&--&&#OO.                  .OO#&&--&&#OO.                  .OO#&&--&&#OO.                  .OO#&&--&&#OO.         ",
"      +@@.O$$**$$**$$O.@@++           +@@.O$$**$$**$$O.@@++           +@@.O$$**$$**$$O.@@++           +@@.O$$**$$**$$O.@@++     ",
"   ++@O#@%%$*%#**#%#%%@@#O+++ooo   ++@O#@%%$*%#**#%#%%@@#O+++ooo   ++@O#@%%$*%#**#%#%%@@#O+++ooo   ++@O#@%%$*%#**#%#%%@@#O+++ooo",
"++X@@@O%###%##%%%%#%#%##%OO@@XXo++X@@@O%###%##%%%%#%#%##%OO@@XXo++X@@@O%###%##%%%%#%#%##%OO@@XXo++X@@@O%###%##%%%%#%#%##%OO@@XXo",
"XX+OOO@%%#%#$*#%%#&#%##%@+OOO++XXX+OOO@%%#%#$*#%%#&#%##%@+OOO++XXX+OOO@%%#%#$*#%%#&#%##%@+OOO++XXX+OOO@%%#%#$*#%%#&#%##%@+OOO++X",
"oo +++   @@$$&&--&&#O@@@  ++ ooooo +++   @@$$&&--&&#O@@@  ++ ooooo +++   @@$$&&--&&#O@@@  ++ ooooo +++   @@$$&&--&&#O@@@  ++ ooo",
"o        .@O#&&--&&#OO.         o        .@O#&&--&&#OO.         o        .@O#&&--&&#OO.         o        .@O#&&--&&#OO.         ",
"         .OO#&&--&&#OO.                  .OO#&&--&&#OO.                  .OO#&&--&&#OO.                  .OO#&&--&&#OO.         ",
"      +@@.O$$**$$**$$O.@@++           +@@.O$$**$$**$$O.@@++           +@@.O$$**$$**$$O.@@++           +@@.O$$**$$**$$O.@@++     ",
"   ++@O#@%%$*%#**#%#%%@@#O+++ooo   ++@O#@%%$*%#**#%#%%@@#O+++ooo   ++@O#@%%$*%#**#%#%%@@#O+++ooo   ++@O#@%%$*%#**#%#%%@@#O+++ooo",
"++X@@@O%###%##%%%%#%#%##%OO@@XXo++X@@@O%###%##%%%%#%#%##%OO@@XXo++X@@@O%###%##%%%%#%#%##%OO@@XXo++X@@@O%###%##%%%%#%#%##%OO@@XXo",
"XX+OOO@%%#%#$*#%%#&#%##%@+OOO++XXX+OOO@%%#%#$*#%%#&#%##%@+OOO++XXX+OOO@%%#%#$*#%%#&#%##%@+OOO++XXX+OOO@%%#%#$*#%%#&#%##%@+OOO++X",
"oo +++   @@$$&&--&&#O@@@  ++ ooooo +++   @@$$&&--&&#O@@@  ++ ooooo +++   @@$$&&--&&#O@@@  ++ ooooo +++   @@$$&&--&&#O@@@  ++ ooo",
"o        .@O#&&--&&#OO.         o        .@O#&&--&&#OO.         o        .@O#&&--&&#OO.         o        .@O#&&--&&#OO.         ",
"         .OO#&&--&&#OO.                  .OO#&&--&&#OO.                  .OO#&&--&&#OO.                  .OO#&&--&&#OO.         ",
"      +@@.O$$**$$**$$O.@@++           +@@.O$$**$$**$$O.@@++           +@@.O$$**$$**$$O.@@++           +@@.O$$**$$**$$O.@@++     ",
"   ++@O#@%%$*%#**#%#%%@@#O+++ooo   ++@O#@%%$*%#**#%#%%@@#O+++ooo   ++@O#@%%$*%#**#%#%%@@#O+++ooo   ++@O#@%%$*%#**#%#%%@@#O+++ooo",
"++X@@@O%###%##%%%%#%#%##%OO@@XXo++X@@@O%###%##%%%%#%#%##%OO@@XXo++X@@@O%###%##%%%%#%#%##%OO@@XXo++X@@@O%###%##%%%%#%#%##%OO@@XXo",
"XX+OOO@%%#%#$*#%%#&#%##%@+OOO++XXX+OOO@%%#%#$*#%%#&#%##%@+OOO++XXX+OOO@%%#%#$*#%%#&#%##%@+OOO++XXX+OOO@%%#%#$*#%%#&#%##%@+OOO++X",
"oo +++   @@$$&&--&&#O@@@  ++ ooooo +++   @@$$&&--&&#O@@@  ++ ooooo +++   @@$$&&--&&#O@@@  ++ ooooo +++   @@$$&&--&&#O@@@  ++ ooo",
"o        .@O#&&--&&#OO.         o        .@O#&&--&&#OO.         o        .@O#&&--&&#OO.         o        .@O#&&--&&#OO.         ",
"         .OO#&&--&&#OO.                  .OO#&&--&&#OO.                  .OO#&&--&&#OO.                  .OO#&&--&&#OO.         ",
"      +@@.O$$**$$**$$O.@@++           +@@.O$$**$$**$$O.@@++           +@@.O$$**$$**$$O.@@++           +@@.O$$**$$**$$O.@@++     ",
"   ++@O#@%%$*%#**#%#%%@@#O+++ooo   ++@O#@%%$*%#**#%#%%@@#O+++ooo   ++@O#@%%$*%#**#%#%%@@#O+++ooo   ++@O#@%%$*%#**#%#%%@@#O+++ooo",
"++X@@@O%###%##%%%%#%#%##%OO@@XXo++X@@@O%###%##%%%%#%#%##%OO@@XXo++X@@@O%###%##%%%%#%#%##%OO@@XXo++X@@@O%###%##%%%%#%#%##%OO@@XXo",
"XX+OOO@%%#%#$*#%%#&#%##%@+OOO++XXX+OOO@%%#%#$*#%%#&#%##%@+OOO++XXX+OOO@%%#%#$*#%%#&#%##%@+OOO++XXX+OOO@%%#%#$*#%%#&#%##%@+OOO++X",
"oo +++   @@$$&&--&&#O@@@  ++ ooooo +++   @@$$&&--&&#O@@@  ++ ooooo +++   @@$$&&--&&#O@@@  ++ ooooo +++   @@$$&&--&&#O@@@  ++ ooo",
"o        .@O#&&--&&#OO.         o        .@O#&&--&&#OO.         o        .@O#&&--&&#OO.         o        .@O#&&--&&#OO.         ",
"         .OO#&&--&&#OO.                  .OO#&&--&&#OO.                  .OO#&&--&&#OO.                  .OO#&&--&&#OO.         ",
"      +@@.O$$**$$**$$O.@@++           +@@.O$$**$$**$$O.@@++           +@@.O$$**$$**$$O.@@++           +@@.O$$**$$**$$O.@@++     ",
"   ++@O#@%%$*%#**#%#%%@@#O+++ooo   ++@O#@%%$*%#**#%#%%@@#O+++ooo   ++@O#@%%$*%#**#%#%%@@#O+++ooo   ++@O#@%%$*%#**#%#%%@@#O+++ooo",
"++X@@@O%###%##%%%%#%#%##%OO@@XXo++X@@@O%###%##%%%%#%#%##%OO@@XXo++X@@@O%###%##%%%%#%#%##%OO@@XXo++X@@@O%###%##%%%%#%#%##%OO@@XXo",
"XX+OOO@%%#%#$*#%%#&#%##%@+OOO++XXX+OOO@%%#%#$*#%%#&#%##%@+OOO++XXX+OOO@%%#%#$*#%%#&#%##%@+OOO++XXX+OOO@%%#%#$*#%%#&#%##%@+OOO++X",
"oo +++   @@$$&&--&&#O@@@  ++ ooooo +++   @@$$&&--&&#O@@@  ++ ooooo +++   @@$$&&--&&#O@@@  ++ ooooo +++   @@$$&&--&&#O@@@  ++ ooo",
"o        .@O#&&--&&#OO.         o        .@O#&&--&&#OO.         o        .@O#&&--&&#OO.         o        .@O#&&--&&#OO.         ",
"         .OO#&&--&&#OO.                  .OO#&&--&&#OO.                  .OO#&&--&&#OO.                  .OO#&&--&&#OO.         ",
"      +@@.O$$**$$**$$O.@@++           +@@.O$$**$$**$$O.@@++           +@@.O$$**$$**$$O.@@++           +@@.O$$**$$**$$O.@@++     ",
"   ++@O#@%%$*%#**#%#%%@@#O+++ooo   ++@O#@%%$*%#**#%#%%@@#O+++ooo   ++@O#@%%$*%#**#%#%%@@#O+++ooo   ++@O#@%%$*%#**#%#%%@@#O+++ooo",
"++X@@@O%###%##%%%%#%#%##%OO@@XXo++X@@@O%###%##%%%%#%#%##%OO@@XXo++X@@@O%###%##%%%%#%#%##%OO@@XXo++X@@@O%###%##%%%%#%#%##%OO@@XXo",
"XX+OOO@%%#%#$*#%%#&#%##%@+OOO++XXX+OOO@%%#%#$*#%%#&#%##%@+OOO++XXX+OOO@%%#%#$*#%%#&#%##%@+OOO++XXX+OOO@%%#%#$*#%%#&#%##%@+OOO++X",
"oo +++   @@$$&&--&&#O@@@  ++ ooooo +++   @@$$&&--&&#O@@@  ++ ooooo +++   @@$$&&--&&#O@@@  ++ ooooo +++   @@$$&&--&&#O@@@  ++ ooo",
"o        .@O#&&--&&#OO.         o        .@O#&&--&&#OO.         o        .@O#&&--&&#OO.         o        .@O#&&--&&#OO.         ",
"         .OO#&&--&&#OO.                  .OO#&&--&&#OO.                  .OO#&&--&&#OO.                  .OO#&&--&&#OO.         ",
"      +@@.O$$**$$**$$O.@@++           +@@.O$$**$$**$$O.@@++           +@@.O$$**$$**$$O.@@++           +@@.O$$**$$**$$O.@@++     ",
"   ++@O#@%%$*%#**#%#%%@@#O+++ooo   ++@O#@%%$*%#**#%#%%@@#O+++ooo   ++@O#@%%$*%#**#%#%%@@#O+++ooo   ++@O#@%%$*%#**#%#%%@@#O+++ooo",
"++X@@@O%###%##%%%%#%#%##%OO@@XXo++X@@@O%###%##%%%%#%#%##%OO@@XXo++X@@@O%###%##%%%%#%#%##%OO@@XXo++X@@@O%###%##%%%%#%#%##%OO@@XXo",
"XX+OOO@%%#%#$*#%%#&#%##%@+OOO++XXX+OOO@%%#%#$*#%%#&#%##%@+OOO++XXX+OOO@%%#%#$*#%%#&#%##%@+OOO++XXX+OOO@%%#%#$*#%%#&#%##%@+OOO++X",
"oo +++   @@$$&&--&&#O@@@  ++ ooooo +++   @@$$&&--&&#O@@@  ++ ooooo +++   @@$$&&--&&#O@@@  ++ ooooo +++   @@$$&&--&&#O@@@  ++ ooo",
"o        .@O#&&--&&#OO.         o        .@O#&&--&&#OO.         o        .@O#&&--&&#OO.         o        .@O#&&--&&#OO.         ",
"         .OO#&&--&&#OO.                  .OO#&&--&&#OO.                  .OO#&&--&&#OO.                  .OO#&&--&&#OO.         ",
"         .OO#&&--&&#OO.                  .OO#&&--&&#OO.                  .OO#&&--&&#OO.                  .OO#&&--&&#OO.         ",
"         ==============                  ==============                  ==============                  ==============         ",
"      %%%%%%%%%%%%%%%====             %%%%%%%%%%%%%%%====             %%%%%%%%%%%%%%%====             %%%%%%%%%%%%%%%====       ",
"   %%++@@%%%%%%%%%%%%%@@@@++%      %%++@@%%%%%%%%%%%%%@@@@++%      %%++@@%%%%%%%%%%%%%@@@@++%      %%++@@%%%%%%%%%%%%%@@@@++%   ",
"  %%+@@@@@@@@%%%%%@@@@@@@@@@%%    %%+@@@@@@@@%%%%%@@@@@@@@@@%%    %%+@@@@@@@@%%%%%@@@@@@@@@@%%    %%+@@@@@@@@%%%%%@@@@@@@@@@%%  ",
" %%%+o+@@@@@@@%%@@@@@@@@++++++%  %%%+o+@@@@@@@%%@@@@@@@@++++++%  %%%+o+@@@@@@@%%@@@@@@@@++++++%  %%%+o+@@@@@@@%%@@@@@@@@++++++% ",
"%%%oooooOo@oooooooo@o@OOo+o+++++%%%oooooOo@oooooooo@o@OOo+o+++++%%%oooooOo@oooooooo@o@OOo+o+++++%%%oooooOo@oooooooo@o@OOo+o+++++"
};
