/* XPM */
static char *_7a3701a753847d5ad01398963abf6ad[] = {
/* columns rows colors chars-per-pixel */
"64 64 16 1 ",
"  c #0F200A",
". c #17300F",
"X c #1E4014",
"o c #265019",
"O c #2D601E",
"+ c #357023",
"@ c #3C8028",
"# c #43902D",
"$ c #4BA032",
"% c #52B037",
"& c #5AC03C",
"* c #61D041",
"= c #69E046",
"- c #70F04B",
"; c #77FF4F",
": c #BFA78F",
/* pixels */
"*#@o#oX+$+#@o##o+@o@##+@O#@$+Xo#@+o@%O+#@@o+#OoO@###@#@#%+O$O@##",
"&#+XO@O.X+o+X+#Oo+oXoo++X+O+XXooO$@O$@+##@o#O@#+O#####O@@@oO##%%",
"$@OoXO#o.X.ooO+@+..OoX+O+OoOOX.oo@#@@#O+@@Ooo@%%%%+#O#####@o##+#",
"@OXOooOOOoXoOOoO+O#OooOoX.oO@OX+#@#+##+@oOOOo+#==$+@O###+*@O@@##",
"OooO..ooooOXXOXXO$OO..ooooo+OXXXOO$#O#%###@$O@#@#$O+@##@#%&@#$%%",
"+OXooOooX.o+.O+oX=#X.. .o+oO+OXooO$#oO@+$#OoOO##%@O+@@++$%%%@#@+",
"++O+++ooooX%.oO+O$o..o...XXo+#$++##@oO+O#@Oo@#O$@OOO#@#@OO@$O#@@",
"$#OXooooo.X+oooO#Oo.ooooXooo+OO@@##@ooOO%#OoO$@##+OO#@O$@@@%+##@",
"$+OOoXXoo.OoOOXo+OoXO..ooooOoO+++@&@Oo@O&@###$&#@o++#+@#O#@%@@@@",
"@$@++.oooo#X$$+o#O.o#o.o#oooXOO#+O##%OO@O###$%&#+@##@#@%#O####OO",
"@#@OoXooo++#oo=oOoXO#oXXOo+o.Oo+oO&@&Oo@o####Oo#+$$O+#O$%O#+&###",
"++OOoXoooo%$Xo$ooooo+ooooXXXoXo+@O%+$+O@$O@$@OO##$%$+@@##@##@@$#",
"@@XO..ooXo##ooOXooo+#.ooO  .ooo+%O@@@+##+Oo@#+oO+#%&&#O@@#*##@#@",
"@+XOooOooo#oooOoXXo#o.O#o.o.#OO+#O@+@#+OO+OO##+@##%#@#@@+#&%OO#@",
"++oo#o#o.O+XX$Oo.o.o#X#ooXoooO@#%%$@@+++@@#+@###+##+O#@#@#&#OO$@",
"++O+++oo.ooX.*Oo..o++o+.ooXXoO++@&#O@$###@OOO#&#@#@@@###O$$@+%@@",
"@+oO%#Xo.o.oX#ooo.oo+.o.oOooo oOoO+Oo#@@$=&#++$##+%@O@@#o@@@O$++",
"@+XO#+ooOX.o.Oo..oX.OXo..oooo.oO@@@#@####&=#####%OO+OO@@O@O#O#oO",
"#O.OOX.Xo o.X#oo+oo.XXoXXXooooO#@@@+@##+OO@@@$$O=+%#@+@@@+O#@##@",
"%+..X...  o..OXo+X.Xoo.ooooOoO++O#$##@#$#O+@+####@*$@#+++O@+#@$#",
"+*+ O++X..O.ooooo..XooXXX++OoOoo@##$&OO##+@#$%$#+@#@o+@+O@#++O#+",
"+%O OOoo.o+.oXoo..o.XoX.XOoooo.+X@#@&+@@@#$@@&&oO###O##+o@#@&%#@",
"@$@...ooooooooooo. ..oo ooOoX.o+XOO@&++@@+&$O#%@O%%@O##O++##%#$@",
"#+#+o.o+.O.o.oo.o.Xo.oo XXoo. XXo##@&@@##+##%##%@$%+@@@O@##OOO@+",
"$#+O+ooo.o.ooo.X.oo.ooo..ooXXooXo%@O%%$%##@O+@#+#+$#$#@@@+@@@Oo+",
"@Ooo .o+ooXooo..o.X.ooo. .oOo@X@O#%#%@&=+%&@@O@##+#@$#+#$#@@#@@#",
"oXo  oo+o#.o o.X..ooo ..o  ooo++@$=&$##*@@$=@OO%$$##@+###$&O@@@&",
"+O@oooXOoOoX .o.o .o..o.+o.ooOO+@#&=$#@=$$@+*$O$@##@O#o@#@&@#OO@",
"$.OOoo.oo.Xo  o.+o.o .ooXooooO++OOO@#OO#%%&O+@+@$#+O@#oOO+%#%%#+",
"%XooO@ .O..o..XoOoo..@XoO OOO@O###O+#+O#%%##++++@#Oo+OO##@@$$$%#",
"$+oooo.X...Oo.Xoo.Oo.Oo.X.X@OOoX@@+@OOO#&@@O@+O@@++@@OO%@O%#@@o+",
"#Oo+@oXOXXXo+XOO+OOOX+O@++O+OOOOO+@@oXOO#$@@@OXo+#@$O#O@$@$++Xo@",
"#o+&%oo@+O#O$OO$@+@Oo#+@#o++oO@%oOX+XOO+#O$$+XO..OOO@++@*$@+++#+",
"$O$=@OOOO$O##$+#O+#@#@#OoO++#@+@+o..O.@@+OO#O.@O.oOOOOOO#&+OoX+@",
"##@$OOOo@#$#O%@+%+%#&@@OOOO@@+#ooo. OX+$OOX+oOXOoooOOOX..oOXoXo@",
"+@@o#OOO#@@&@#%&&#%#$=#+#%@&#+#oXo..Xoooo..oooo ooooo+ooXoooXOO+",
"+o#@#OO$%++$#=%-&#$#$&#@#@%&@+Oo+OX.oO+ooo..o.o.ooo. Oo.OO#o.o+O",
"O@%###%%#@@#%&$%&&%##$@+++&#O@+o+OoXo#+OooX.ooooooooooo.#oooXoOo",
"O+@@##@@O@%#@@&@&@%*##$+++%@$$$OOOOoOXoOoooooOooo.oo.o+o#O.o.OOO",
"O@@O#%#@O+*O@O&########@@$@@&+#@OoooO.XooXooooooo..o.XXo*+o..++@",
"OO+##$%@$@@++O+@#O@@@$@O$O+@+#+++.oXo..XoooOo.+ooO..oo..++o+.O#+",
"O@@@@@@&@@O#OO@#@@+@#@+@%O%+@O@++o...o..oOoO. .*.+o..X.oX#OOO@+O",
"@%$+#$%%O+$O@O$#+#@@#@O@@%%o++O+X$OX.OoXoooo.o o+XoO  o..o+oXo+o",
"O@##$%&$@o&##%*@@@@#&oOO@%@ooOO+X$Oooooooooooo oooo+oo.o oooX.O@",
"+O@+O@$%#O#$@%@O#@@O#o###%&%#+@@.+$+oooOOoXoo+.oXooOooo#oo+.oXO+",
"@O@$#O@@###OOO++##+#OO@@+##%@&#@Xo%ooXXoooooX+o.oX#o.X..o.+o+@O+",
"@@o+%#&O$##@#O@@@@O$+oooO+o@O$+@Oo$ooooooXoooOo .o#OXXX.oo.o+Xo+",
"@$+O#$$#%#O@$&#@#@+O@OOoo#O$O++@Oo$o+OoOOoo.Xoo .#ooo..ooo.XOXO+",
"+%OoO$O%#OO@$%$#%@+O#+O+@##+##+XoX+ooo.oOooo oO.o$o +..oX..XoX++",
"O$Ooo#@#%#%#$#OO@$@@=$#@oO&##%OoXXO .oo.oOoX..Ooo.o..o XX  oO.#@",
"$#%O#%@#%#@O#&#OO@%O@%$#oo##@@oO+.O..oXXO+o.X.ooo Xo . O. ..oX@o",
"$@&O#&@@%##%&#%#+#&$OO&%$oO##O+o+oooXoXXooooX.oooo.oo.o#oooo .+o",
"&#$@+O+%%%$#%O#%+@&O#%#%&$O+@@#@++OoooOoooXX..o..oo.O##$#o#o..o&",
"$$$#O+#=#$$#+$$$%Oo+#@#&$#o##@$@oXOXXoooooXoo.oXooX.oo%%oo#ooo=%",
"@$OO#@:*##$$###&&%o#Oo#$&+O@#@$@XoX .oo.ooX#o..oOooo.ooo.oo.Xo#+",
"$$O#O@&&O#%#@&*%-#OO@#@@-=O@OO@#X+o...OX.+Ooo..oooOoooo.Xo..XoO+",
"@#;*#OO&O@$##%&&&@#O#$@#O=$@@O@@X+oo..o .%oXX.oooOooooo..Xo.OOO@",
"+#%$##o#+OoO+@+#$$$+%##%OO+O##@@+oooXXo..#oo.ooo.oOOooo.XoX.OO#%",
"@##@#@@#%#O###%O@#O#&@+=+%$@##+++OOo...oXoXoooXo.Xoooo..ooXo@@@&",
"#@O*#@#$$##%$##O+#O*%+@#@*$+#+#@OOO..Xoo  Xoooo.oo.oXoo.X+oXO@#O",
"##o**@$%oO++@#@&@@@*#O#+@#@o@@@@+OOO.XOO  OOO#OoXO..OOoO.#$O#OO+",
"#@O@#o+$OO@@@@$&O+%#&OoO##@o@#++O++oO+o#..O@+@XoXXOOO+.oX.&##oO+",
"%@+o#+O@#O+@@%#O#@#+%$@O%%@O@@O+OoO++%+OoOX++.XO+oO+ooOX+Xo#Oo#+",
"##++##+#$$@OO&#O@$$@%&%@$%+@@@OO+oX+#@#@Oo@+@Xoo+#@++o+Oo@OOO+#O"
};
